<?xml version="1.0" encoding="utf-8"?>
<!-- Generator: Adobe Illustrator 17.0.0, SVG Export Plug-In . SVG Version: 6.00 Build 0)  -->
<!DOCTYPE svg PUBLIC "-//W3C//DTD SVG 1.1//EN" "http://www.w3.org/Graphics/SVG/1.1/DTD/svg11.dtd">
<svg version="1.1" xmlns="http://www.w3.org/2000/svg" xmlns:xlink="http://www.w3.org/1999/xlink" x="0px" y="0px"
	 width="74.663px" height="84.73px" viewBox="0.25 0.25 74.663 84.73" enable-background="new 0.25 0.25 74.663 84.73"
	 xml:space="preserve">
<g id="Ebene_2">
</g>
<g id="Ebene_1">
	<path fill="#FFFFFF" d="M38.708,3.75c-10.321,0-19.174,3.973-25.602,11.488C7.073,22.293,3.75,31.963,3.75,42.465
		c0,23.701,13.781,39.015,35.109,39.015c14.056,0,25.544-7.19,30.732-19.234c1.059-2.495,1.022-4.804-0.102-6.501
		c-1.029-1.555-2.836-2.411-5.088-2.411h-3.604c-3.801,0-6.761,1.648-8.336,4.643c-2.144,4.148-7.284,6.626-13.752,6.626
		c-9.231,0-15.861-7.033-16.563-17.53h42.106c4.417,0,7.16-2.687,7.16-7.011v-3.306C71.413,18.556,56.742,3.75,38.708,3.75z
		 M23.239,32.148c1.338-6.147,6.966-12.271,15.319-12.271c7.488,0,13.718,5.368,14.306,12.271H23.239z"/>
	<path d="M74.913,36.754c0-9.379-3.727-18.655-10.224-25.449C57.871,4.176,48.644,0.25,38.708,0.25
		C16.424,0.25,0.25,18.004,0.25,42.465c0,12.176,3.458,22.627,9.999,30.225c6.923,8.04,16.817,12.29,28.61,12.29
		c15.499,0,28.188-7.981,33.945-21.35c1.516-3.57,1.371-7.149-0.396-9.819c-1.021-1.54-2.521-2.702-4.341-3.36l-0.678-0.246
		l0.684-0.227c4.219-1.399,6.84-5.2,6.84-9.918V36.754z M71.413,40.061c0,4.325-2.743,7.011-7.16,7.011H22.146
		c0.703,10.497,7.332,17.53,16.563,17.53c6.468,0,11.608-2.478,13.752-6.626c1.575-2.994,4.535-4.643,8.336-4.643h3.604
		c2.252,0,4.059,0.856,5.088,2.411c1.124,1.697,1.16,4.006,0.102,6.501C64.403,74.29,52.914,81.48,38.859,81.48
		C17.531,81.48,3.75,66.166,3.75,42.465c0-10.502,3.323-20.172,9.357-27.227C19.534,7.722,28.387,3.75,38.708,3.75
		c18.033,0,32.704,14.806,32.704,33.005V40.061z M55.981,50.572L54.94,51.05c-2.406,1.103-4.334,2.934-5.575,5.295
		c-1.811,3.508-6.691,4.758-10.655,4.758c-6.07,0-10.711-3.819-12.419-10.216l-0.084-0.314H55.981z"/>
	<path d="M38.558,19.877c-8.353,0-13.981,6.124-15.319,12.271h29.625C52.276,25.245,46.046,19.877,38.558,19.877z M28.535,28.648
		l0.296-0.399c2.332-3.142,5.786-4.872,9.727-4.872c3.845,0,7.438,1.872,9.378,4.886l0.248,0.385H28.535z"/>
</g>
</svg>
