<?xml version="1.0" encoding="utf-8"?>
<!-- Generator: Adobe Illustrator 17.0.0, SVG Export Plug-In . SVG Version: 6.00 Build 0)  -->
<!DOCTYPE svg PUBLIC "-//W3C//DTD SVG 1.1//EN" "http://www.w3.org/Graphics/SVG/1.1/DTD/svg11.dtd">
<svg version="1.1" id="Ebene_1" xmlns="http://www.w3.org/2000/svg" xmlns:xlink="http://www.w3.org/1999/xlink" x="0px" y="0px"
	 width="71.208px" height="116.735px" viewBox="0 0 71.208 116.735" enable-background="new 0 0 71.208 116.735"
	 xml:space="preserve">
<g id="Ebene_1_1_">
</g>
<path fill="#FFFFFF" d="M38.596,36.955l-0.338,0.001c-6.855,0-12.999,3.583-16.278,5.922V11.062c0-4.442-2.87-7.312-7.312-7.312
	h-3.606c-4.51,0-7.312,2.802-7.313,7.312v95.11c0,3.535,1.881,7.312,7.162,7.312h3.606c5.155,0,7.462-3.672,7.462-7.312
	l-0.003-40.829c1.023-6.285,7.119-11.209,13.877-11.209c8.558,0,13.874,5.028,13.874,13.123v38.916c0,3.64,2.261,7.312,7.312,7.312
	h3.606c5.024,0,7.312-3.791,7.312-7.312h-0.001V67.558C67.956,48.682,56.706,36.955,38.596,36.955z"/>
<path d="M38.597,33.455l-0.37,0.001c-3.982,0-8.15,1.035-12.388,3.077l-0.358,0.173V11.062C25.479,4.696,21.033,0.25,14.668,0.25
	h-3.606C4.595,0.25,0.25,4.595,0.25,11.062v95.11c0,6.365,4.384,10.812,10.662,10.812h3.606c6.352,0,10.962-4.547,10.962-10.812
	V65.659c0.912-4.596,5.369-8.024,10.374-8.024c3.874,0,10.374,1.25,10.374,9.623v38.916c0,6.265,4.547,10.812,10.812,10.812h3.606
	c6.164,0,10.812-4.647,10.812-10.812V67.558C71.458,46.841,58.56,33.455,38.597,33.455z M67.957,106.173
	c0,3.521-2.288,7.312-7.312,7.312h-3.606c-5.051,0-7.312-3.672-7.312-7.312V67.257c0-8.095-5.316-13.123-13.874-13.123
	c-6.758,0-12.854,4.924-13.877,11.209l0.003,40.829c0,3.64-2.307,7.312-7.462,7.312h-3.606c-5.281,0-7.162-3.777-7.162-7.312v-95.11
	C3.75,6.552,6.552,3.75,11.062,3.75h3.606c4.442,0,7.312,2.87,7.312,7.312v31.816c3.279-2.339,9.423-5.922,16.278-5.922l0.338-0.001
	c18.11,0,29.36,11.727,29.36,30.603v38.615H67.957z"/>
</svg>
