<?xml version="1.0" encoding="utf-8"?>
<!-- Generator: Adobe Illustrator 17.0.0, SVG Export Plug-In . SVG Version: 6.00 Build 0)  -->
<!DOCTYPE svg PUBLIC "-//W3C//DTD SVG 1.1//EN" "http://www.w3.org/Graphics/SVG/1.1/DTD/svg11.dtd">
<svg version="1.1" xmlns="http://www.w3.org/2000/svg" xmlns:xlink="http://www.w3.org/1999/xlink" x="0px" y="0px"
	 width="79.367px" height="110.123px" viewBox="0.25 0.25 79.367 110.123" enable-background="new 0.25 0.25 79.367 110.123"
	 xml:space="preserve">
<g id="Ebene_2">
	<path fill="#FFFFFF" d="M75.363,12.965c1.049-2.399,0.997-4.774-0.143-6.516c-1.139-1.741-3.197-2.699-5.797-2.699h-5.259
		c-2.814,0-5.566,1.772-6.542,4.213L39.827,51.712L22.478,8.119c-0.95-2.532-3.765-4.369-6.695-4.369h-5.109
		c-2.542,0-4.779,1.113-5.983,2.979c-1.149,1.779-1.242,4.054-0.256,6.237l25.951,59.102l-6.268,14.922
		c-1.007,2.301-3.191,3.11-6.164,2.264c-0.725-0.202-1.484-0.305-2.256-0.305c-3.042,0-6.396,1.723-6.922,5.009l-0.601,3.307
		c-0.701,4.031,0.992,7.113,4.524,8.244c3.694,1.232,7.275,1.365,8.644,1.365c8.086,0,15.081-4.999,18.71-13.371L75.363,12.965z"/>
	<path d="M78.569,14.371c1.531-3.502,1.379-7.087-0.419-9.837c-1.781-2.722-4.962-4.284-8.727-4.284h-5.259
		c-4.256,0-8.282,2.637-9.792,6.414L39.862,42.336L25.741,6.853c-1.48-3.889-5.574-6.603-9.958-6.603h-5.109
		c-3.736,0-7.073,1.712-8.924,4.581c-1.806,2.797-1.99,6.288-0.504,9.578l25.331,57.689l-5.672,13.506
		c-0.056,0.125-0.108,0.213-0.153,0.273v0.062l-0.137,0.069c-0.046,0.023-0.187,0.078-0.492,0.078c-0.232,0-0.629-0.034-1.207-0.198
		c-1.04-0.292-2.124-0.44-3.219-0.44c-5.25,0-9.612,3.329-10.372,7.915l-0.595,3.273c-1.001,5.752,1.709,10.543,6.904,12.205
		c4.144,1.382,8.169,1.531,9.707,1.531c9.526,0,17.721-5.787,21.922-15.481L78.569,14.371z M21.342,106.873
		c-1.368,0-4.95-0.133-8.644-1.365c-3.532-1.131-5.225-4.213-4.524-8.244l0.601-3.307c0.526-3.286,3.881-5.009,6.922-5.009
		c0.772,0,1.531,0.103,2.256,0.305c2.973,0.847,5.156,0.037,6.164-2.264l6.268-14.922L4.435,12.966
		c-0.986-2.184-0.893-4.458,0.256-6.237C5.895,4.863,8.132,3.75,10.674,3.75h5.109c2.93,0,5.745,1.837,6.695,4.369l17.349,43.593
		L57.622,7.963c0.976-2.44,3.728-4.213,6.542-4.213h5.259c2.6,0,4.658,0.958,5.797,2.699c1.14,1.742,1.191,4.117,0.143,6.516
		L40.052,93.502C36.423,101.874,29.429,106.873,21.342,106.873z"/>
</g>
<g id="Ebene_1">
</g>
</svg>
